<?xml version="1.0" encoding="UTF-8" standalone="no"?>
<!-- Created with Inkscape (http://www.inkscape.org/) -->

<svg
   version="1.1"
   width="750"
   height="340"
   viewBox="0 0 750.93869 339.11687"
   id="svg2"
   xml:space="preserve"
   style="fill-rule:evenodd"
   inkscape:version="1.1.2 (0a00cf5339, 2022-02-04, custom)"
   sodipodi:docname="Keyboard As Joystick.svg"
   xmlns:inkscape="http://www.inkscape.org/namespaces/inkscape"
   xmlns:sodipodi="http://sodipodi.sourceforge.net/DTD/sodipodi-0.dtd"
   xmlns="http://www.w3.org/2000/svg"
   xmlns:svg="http://www.w3.org/2000/svg"
   xmlns:rdf="http://www.w3.org/1999/02/22-rdf-syntax-ns#"
   xmlns:cc="http://creativecommons.org/ns#"
   xmlns:dc="http://purl.org/dc/elements/1.1/"><sodipodi:namedview
   pagecolor="#ffffff"
   bordercolor="#666666"
   borderopacity="1"
   objecttolerance="10"
   gridtolerance="10"
   guidetolerance="10"
   inkscape:pageopacity="0"
   inkscape:pageshadow="2"
   inkscape:window-width="1920"
   inkscape:window-height="1019"
   id="namedview484"
   showgrid="false"
   inkscape:zoom="1.7484822"
   inkscape:cx="356.02307"
   inkscape:cy="153.27579"
   inkscape:window-x="1920"
   inkscape:window-y="0"
   inkscape:window-maximized="1"
   inkscape:current-layer="svg2"
   showguides="true"
   inkscape:guide-bbox="true"
   inkscape:pagecheckerboard="0" /><metadata
   id="metadata872"><rdf:RDF><cc:Work
       rdf:about=""><dc:format>image/svg+xml</dc:format><dc:type
         rdf:resource="http://purl.org/dc/dcmitype/StillImage" /></cc:Work></rdf:RDF></metadata>
 <defs
   id="defs4"><inkscape:perspective
   sodipodi:type="inkscape:persp3d"
   inkscape:vp_x="0 : 192.5 : 1"
   inkscape:vp_y="0 : 1000 : 0"
   inkscape:vp_z="799 : 192.5 : 1"
   inkscape:persp3d-origin="399.5 : 128.33333 : 1"
   id="perspective486" /><marker
   refX="0"
   refY="0"
   orient="auto"
   id="TriangleOutM"
   style="overflow:visible"><path
     d="m 5.77,0 -8.65,5 0,-10 8.65,5 z"
     transform="scale(0.4,0.4)"
     id="path4359"
     style="fill-rule:evenodd;stroke:#000000;stroke-width:1pt;marker-start:none" /></marker><marker
   refX="0"
   refY="0"
   orient="auto"
   id="TriangleOutS"
   style="overflow:visible"><path
     d="m 5.77,0 -8.65,5 0,-10 8.65,5 z"
     transform="scale(0.2,0.2)"
     id="path4362"
     style="fill-rule:evenodd;stroke:#000000;stroke-width:1pt;marker-start:none" /></marker><marker
   refX="0"
   refY="0"
   orient="auto"
   id="TriangleOutL"
   style="overflow:visible"><path
     d="m 5.77,0 -8.65,5 0,-10 8.65,5 z"
     transform="scale(0.8,0.8)"
     id="path4356"
     style="fill-rule:evenodd;stroke:#000000;stroke-width:1pt;marker-start:none" /></marker><marker
   refX="0"
   refY="0"
   orient="auto"
   id="Arrow1Lend"
   style="overflow:visible"><path
     d="M 0,0 5,-5 -12.5,0 5,5 0,0 z"
     transform="matrix(-0.8,0,0,-0.8,-10,0)"
     id="path4216"
     style="fill-rule:evenodd;stroke:#000000;stroke-width:1pt;marker-start:none" /></marker><marker
   refX="0"
   refY="0"
   orient="auto"
   id="Arrow2Lend"
   style="overflow:visible"><path
     d="M 8.7185878,4.0337352 -2.2072895,0.01601326 8.7185884,-4.0017078 c -1.7454984,2.3720609 -1.7354408,5.6174519 -6e-7,8.035443 z"
     transform="matrix(-1.1,0,0,-1.1,-1.1,0)"
     id="path4234"
     style="font-size:12px;fill-rule:evenodd;stroke-width:0.625;stroke-linejoin:round" /></marker><marker
   refX="0"
   refY="0"
   orient="auto"
   id="Arrow2Lstart"
   style="overflow:visible"><path
     d="M 8.7185878,4.0337352 -2.2072895,0.01601326 8.7185884,-4.0017078 c -1.7454984,2.3720609 -1.7354408,5.6174519 -6e-7,8.035443 z"
     transform="matrix(1.1,0,0,1.1,1.1,0)"
     id="path4231"
     style="font-size:12px;fill-rule:evenodd;stroke-width:0.625;stroke-linejoin:round" /></marker>
  <style
   type="text/css"
   id="style6" />
 <marker
   refX="0"
   refY="0"
   orient="auto"
   id="TriangleOutSU"
   style="overflow:visible"><path
     d="m 5.77,0 -8.65,5 0,-10 8.65,5 z"
     transform="scale(0.2,0.2)"
     id="path5625"
     style="fill:#2b2828;fill-rule:evenodd;stroke:#2b2828;stroke-width:1pt;marker-start:none" /></marker><marker
   refX="0"
   refY="0"
   orient="auto"
   id="TriangleOutSU-2"
   style="overflow:visible"><path
     d="m 5.77,0 -8.65,5 0,-10 8.65,5 z"
     transform="scale(0.2,0.2)"
     id="path5625-2"
     style="fill:#2b2828;fill-rule:evenodd;stroke:#2b2828;stroke-width:1pt;marker-start:none" /></marker><marker
   refX="0"
   refY="0"
   orient="auto"
   id="TriangleOutSI"
   style="overflow:visible"><path
     d="m 5.77,0 -8.65,5 0,-10 8.65,5 z"
     transform="scale(0.2,0.2)"
     id="path6762"
     style="fill:#2b2828;fill-rule:evenodd;stroke:#2b2828;stroke-width:1pt;marker-start:none" /></marker><marker
   refX="0"
   refY="0"
   orient="auto"
   id="TriangleOutMu"
   style="overflow:visible"><path
     d="m 5.77,0 -8.65,5 0,-10 8.65,5 z"
     transform="scale(0.4,0.4)"
     id="path10716"
     style="fill:#2b2828;fill-rule:evenodd;stroke:#2b2828;stroke-width:1pt;marker-start:none" /></marker><marker
   refX="0"
   refY="0"
   orient="auto"
   id="TriangleOutMY"
   style="overflow:visible"><path
     d="m 5.77,0 -8.65,5 0,-10 8.65,5 z"
     transform="scale(0.4,0.4)"
     id="path10719"
     style="fill:#2b2828;fill-rule:evenodd;stroke:#2b2828;stroke-width:1pt;marker-start:none" /></marker><marker
   refX="0"
   refY="0"
   orient="auto"
   id="TriangleOutM1"
   style="overflow:visible"><path
     d="m 5.77,0 -8.65,5 0,-10 8.65,5 z"
     transform="scale(0.4,0.4)"
     id="path11856"
     style="fill:#2b2828;fill-rule:evenodd;stroke:#2b2828;stroke-width:1pt;marker-start:none" /></marker><marker
   refX="0"
   refY="0"
   orient="auto"
   id="TriangleOutM1-2"
   style="overflow:visible"><path
     d="m 5.77,0 -8.65,5 0,-10 8.65,5 z"
     transform="scale(0.4,0.4)"
     id="path11856-5"
     style="fill:#2b2828;fill-rule:evenodd;stroke:#2b2828;stroke-width:1pt;marker-start:none" /></marker><marker
   refX="0"
   refY="0"
   orient="auto"
   id="TriangleOutM1-6"
   style="overflow:visible"><path
     d="m 5.77,0 -8.65,5 0,-10 8.65,5 z"
     transform="scale(0.4,0.4)"
     id="path11856-54"
     style="fill:#2b2828;fill-rule:evenodd;stroke:#2b2828;stroke-width:1pt;marker-start:none" /></marker><marker
   refX="0"
   refY="0"
   orient="auto"
   id="TriangleOutM1-4"
   style="overflow:visible"><path
     d="m 5.77,0 -8.65,5 0,-10 8.65,5 z"
     transform="scale(0.4,0.4)"
     id="path11856-9"
     style="fill:#2b2828;fill-rule:evenodd;stroke:#2b2828;stroke-width:1pt;marker-start:none" /></marker><marker
   refX="0"
   refY="0"
   orient="auto"
   id="TriangleOutM1-1"
   style="overflow:visible"><path
     d="m 5.77,0 -8.65,5 0,-10 8.65,5 z"
     transform="scale(0.4,0.4)"
     id="path11856-97"
     style="fill:#2b2828;fill-rule:evenodd;stroke:#2b2828;stroke-width:1pt;marker-start:none" /></marker><marker
   refX="0"
   refY="0"
   orient="auto"
   id="TriangleOutM1-64"
   style="overflow:visible"><path
     d="m 5.77,0 -8.65,5 0,-10 8.65,5 z"
     transform="scale(0.4,0.4)"
     id="path11856-3"
     style="fill:#2b2828;fill-rule:evenodd;stroke:#2b2828;stroke-width:1pt;marker-start:none" /></marker><marker
   refX="0"
   refY="0"
   orient="auto"
   id="TriangleOutM1-5"
   style="overflow:visible"><path
     d="m 5.77,0 -8.65,5 0,-10 8.65,5 z"
     transform="scale(0.4,0.4)"
     id="path11856-55"
     style="fill:#2b2828;fill-rule:evenodd;stroke:#2b2828;stroke-width:1pt;marker-start:none" /></marker><marker
   refX="0"
   refY="0"
   orient="auto"
   id="TriangleOutM1-9"
   style="overflow:visible"><path
     d="m 5.77,0 -8.65,5 0,-10 8.65,5 z"
     transform="scale(0.4,0.4)"
     id="path11856-0"
     style="fill:#2b2828;fill-rule:evenodd;stroke:#2b2828;stroke-width:1pt;marker-start:none" /></marker><marker
   refX="0"
   refY="0"
   orient="auto"
   id="TriangleOutM1-17"
   style="overflow:visible"><path
     d="m 5.77,0 -8.65,5 0,-10 8.65,5 z"
     transform="scale(0.4,0.4)"
     id="path11856-4"
     style="fill:#2b2828;fill-rule:evenodd;stroke:#2b2828;stroke-width:1pt;marker-start:none" /></marker><marker
   refX="0"
   refY="0"
   orient="auto"
   id="TriangleOutMF"
   style="overflow:visible"><path
     d="m 5.77,0 -8.65,5 0,-10 8.65,5 z"
     transform="scale(0.4,0.4)"
     id="path3528"
     style="fill:#2b2828;fill-rule:evenodd;stroke:#2b2828;stroke-width:1pt;marker-start:none" /></marker>
  
  
  
  
  
  
  
  
  
  
  
  
  
  
  
  
  
  
  
  
  
  
  
  
  
  
  
  
  
  
  
  
  
  
  
  
  
  
  
  
  
  
  
  
  
  
  
  
  
  
  
  
  
  
  
  
  
  
  
  
  
  
  
  
  
  
  
  
  
  
  
  
  
  
  
  
  
  
  
  
  
  
  
  
  
  
  
  
  
  
  
  
  
  
  
  
  
  
  
  
  
  
  
  
  
  
  
  
  
  
  
  
  
  
  
  
  
  
  
  
  
  
  
  
  
  
  
  
  
  
  
  
  
  
  
  
  
  
  
  
  
  
  
  
  
  
  
  
  
  
  
  
  
  
  
  
  
  
  
  
  
  
  
  
  
  
  
  
  
  
  
  
  
  
  
  
  
  
  
  
  
  
  
  
  
  
  
  
  
  
  
  
  
  
  
  
  
  
  
  
  
  
  
  
  
  
  
  
  
  
  
  
  
  
  
  
  
  
  
  
  
  
  
  
  
  
  
  
  
  
  
  
  
  
  
  
  
  
  
  
  
  
  
  
  
  
  
  
  
  
  
  
  
  
  
  
  
  
  
  
  
  
  
  
  
  
  
  
  
  
  
  
  
  
  
  
  
  
  
  
  
  
  
  
  
  
  
  
 <inkscape:perspective
   id="perspective4633"
   inkscape:persp3d-origin="0.5 : 0.33333333 : 1"
   inkscape:vp_z="1 : 0.5 : 1"
   inkscape:vp_y="0 : 1000 : 0"
   inkscape:vp_x="0 : 0.5 : 1"
   sodipodi:type="inkscape:persp3d" /><inkscape:perspective
   id="perspective4655"
   inkscape:persp3d-origin="0.5 : 0.33333333 : 1"
   inkscape:vp_z="1 : 0.5 : 1"
   inkscape:vp_y="0 : 1000 : 0"
   inkscape:vp_x="0 : 0.5 : 1"
   sodipodi:type="inkscape:persp3d" /><inkscape:perspective
   id="perspective4692"
   inkscape:persp3d-origin="0.5 : 0.33333333 : 1"
   inkscape:vp_z="1 : 0.5 : 1"
   inkscape:vp_y="0 : 1000 : 0"
   inkscape:vp_x="0 : 0.5 : 1"
   sodipodi:type="inkscape:persp3d" /><inkscape:perspective
   id="perspective3298"
   inkscape:persp3d-origin="0.5 : 0.33333333 : 1"
   inkscape:vp_z="1 : 0.5 : 1"
   inkscape:vp_y="0 : 1000 : 0"
   inkscape:vp_x="0 : 0.5 : 1"
   sodipodi:type="inkscape:persp3d" /><inkscape:perspective
   id="perspective3299"
   inkscape:persp3d-origin="0.5 : 0.33333333 : 1"
   inkscape:vp_z="1 : 0.5 : 1"
   inkscape:vp_y="0 : 1000 : 0"
   inkscape:vp_x="0 : 0.5 : 1"
   sodipodi:type="inkscape:persp3d" /><inkscape:perspective
   id="perspective3299-5"
   inkscape:persp3d-origin="0.5 : 0.33333333 : 1"
   inkscape:vp_z="1 : 0.5 : 1"
   inkscape:vp_y="0 : 1000 : 0"
   inkscape:vp_x="0 : 0.5 : 1"
   sodipodi:type="inkscape:persp3d" /><inkscape:perspective
   id="perspective4248"
   inkscape:persp3d-origin="0.5 : 0.33333333 : 1"
   inkscape:vp_z="1 : 0.5 : 1"
   inkscape:vp_y="0 : 1000 : 0"
   inkscape:vp_x="0 : 0.5 : 1"
   sodipodi:type="inkscape:persp3d" /><inkscape:perspective
   id="perspective4273"
   inkscape:persp3d-origin="0.5 : 0.33333333 : 1"
   inkscape:vp_z="1 : 0.5 : 1"
   inkscape:vp_y="0 : 1000 : 0"
   inkscape:vp_x="0 : 0.5 : 1"
   sodipodi:type="inkscape:persp3d" /><inkscape:perspective
   id="perspective4298"
   inkscape:persp3d-origin="0.5 : 0.33333333 : 1"
   inkscape:vp_z="1 : 0.5 : 1"
   inkscape:vp_y="0 : 1000 : 0"
   inkscape:vp_x="0 : 0.5 : 1"
   sodipodi:type="inkscape:persp3d" /><inkscape:perspective
   id="perspective4329"
   inkscape:persp3d-origin="0.5 : 0.33333333 : 1"
   inkscape:vp_z="1 : 0.5 : 1"
   inkscape:vp_y="0 : 1000 : 0"
   inkscape:vp_x="0 : 0.5 : 1"
   sodipodi:type="inkscape:persp3d" /><inkscape:perspective
   id="perspective4329-2"
   inkscape:persp3d-origin="0.5 : 0.33333333 : 1"
   inkscape:vp_z="1 : 0.5 : 1"
   inkscape:vp_y="0 : 1000 : 0"
   inkscape:vp_x="0 : 0.5 : 1"
   sodipodi:type="inkscape:persp3d" /><inkscape:perspective
   id="perspective4375"
   inkscape:persp3d-origin="0.5 : 0.33333333 : 1"
   inkscape:vp_z="1 : 0.5 : 1"
   inkscape:vp_y="0 : 1000 : 0"
   inkscape:vp_x="0 : 0.5 : 1"
   sodipodi:type="inkscape:persp3d" /><inkscape:perspective
   id="perspective4406"
   inkscape:persp3d-origin="0.5 : 0.33333333 : 1"
   inkscape:vp_z="1 : 0.5 : 1"
   inkscape:vp_y="0 : 1000 : 0"
   inkscape:vp_x="0 : 0.5 : 1"
   sodipodi:type="inkscape:persp3d" /><inkscape:perspective
   id="perspective4437"
   inkscape:persp3d-origin="0.5 : 0.33333333 : 1"
   inkscape:vp_z="1 : 0.5 : 1"
   inkscape:vp_y="0 : 1000 : 0"
   inkscape:vp_x="0 : 0.5 : 1"
   sodipodi:type="inkscape:persp3d" /><inkscape:perspective
   id="perspective3314"
   inkscape:persp3d-origin="0.5 : 0.33333333 : 1"
   inkscape:vp_z="1 : 0.5 : 1"
   inkscape:vp_y="0 : 1000 : 0"
   inkscape:vp_x="0 : 0.5 : 1"
   sodipodi:type="inkscape:persp3d" /><inkscape:perspective
   id="perspective4247"
   inkscape:persp3d-origin="0.5 : 0.33333333 : 1"
   inkscape:vp_z="1 : 0.5 : 1"
   inkscape:vp_y="0 : 1000 : 0"
   inkscape:vp_x="0 : 0.5 : 1"
   sodipodi:type="inkscape:persp3d" /><inkscape:perspective
   id="perspective4269"
   inkscape:persp3d-origin="0.5 : 0.33333333 : 1"
   inkscape:vp_z="1 : 0.5 : 1"
   inkscape:vp_y="0 : 1000 : 0"
   inkscape:vp_x="0 : 0.5 : 1"
   sodipodi:type="inkscape:persp3d" /><inkscape:perspective
   id="perspective4291"
   inkscape:persp3d-origin="0.5 : 0.33333333 : 1"
   inkscape:vp_z="1 : 0.5 : 1"
   inkscape:vp_y="0 : 1000 : 0"
   inkscape:vp_x="0 : 0.5 : 1"
   sodipodi:type="inkscape:persp3d" /><inkscape:perspective
   id="perspective4313"
   inkscape:persp3d-origin="0.5 : 0.33333333 : 1"
   inkscape:vp_z="1 : 0.5 : 1"
   inkscape:vp_y="0 : 1000 : 0"
   inkscape:vp_x="0 : 0.5 : 1"
   sodipodi:type="inkscape:persp3d" /><inkscape:perspective
   id="perspective4337"
   inkscape:persp3d-origin="0.5 : 0.33333333 : 1"
   inkscape:vp_z="1 : 0.5 : 1"
   inkscape:vp_y="0 : 1000 : 0"
   inkscape:vp_x="0 : 0.5 : 1"
   sodipodi:type="inkscape:persp3d" /><inkscape:perspective
   id="perspective4359"
   inkscape:persp3d-origin="0.5 : 0.33333333 : 1"
   inkscape:vp_z="1 : 0.5 : 1"
   inkscape:vp_y="0 : 1000 : 0"
   inkscape:vp_x="0 : 0.5 : 1"
   sodipodi:type="inkscape:persp3d" /><inkscape:perspective
   id="perspective4381"
   inkscape:persp3d-origin="0.5 : 0.33333333 : 1"
   inkscape:vp_z="1 : 0.5 : 1"
   inkscape:vp_y="0 : 1000 : 0"
   inkscape:vp_x="0 : 0.5 : 1"
   sodipodi:type="inkscape:persp3d" /><inkscape:perspective
   id="perspective4403"
   inkscape:persp3d-origin="0.5 : 0.33333333 : 1"
   inkscape:vp_z="1 : 0.5 : 1"
   inkscape:vp_y="0 : 1000 : 0"
   inkscape:vp_x="0 : 0.5 : 1"
   sodipodi:type="inkscape:persp3d" /><inkscape:perspective
   id="perspective4425"
   inkscape:persp3d-origin="0.5 : 0.33333333 : 1"
   inkscape:vp_z="1 : 0.5 : 1"
   inkscape:vp_y="0 : 1000 : 0"
   inkscape:vp_x="0 : 0.5 : 1"
   sodipodi:type="inkscape:persp3d" /><inkscape:perspective
   id="perspective4449"
   inkscape:persp3d-origin="0.5 : 0.33333333 : 1"
   inkscape:vp_z="1 : 0.5 : 1"
   inkscape:vp_y="0 : 1000 : 0"
   inkscape:vp_x="0 : 0.5 : 1"
   sodipodi:type="inkscape:persp3d" /><inkscape:perspective
   id="perspective4473"
   inkscape:persp3d-origin="0.5 : 0.33333333 : 1"
   inkscape:vp_z="1 : 0.5 : 1"
   inkscape:vp_y="0 : 1000 : 0"
   inkscape:vp_x="0 : 0.5 : 1"
   sodipodi:type="inkscape:persp3d" /><inkscape:perspective
   id="perspective4495"
   inkscape:persp3d-origin="0.5 : 0.33333333 : 1"
   inkscape:vp_z="1 : 0.5 : 1"
   inkscape:vp_y="0 : 1000 : 0"
   inkscape:vp_x="0 : 0.5 : 1"
   sodipodi:type="inkscape:persp3d" /><marker
   refX="0"
   refY="0"
   orient="auto"
   id="TriangleOutM1-3"
   style="overflow:visible"><path
     d="M 5.77,0 -2.88,5 V -5 Z"
     transform="scale(0.4)"
     id="path11856-8"
     style="fill:#2b2828;fill-rule:evenodd;stroke:#2b2828;stroke-width:1pt;marker-start:none" /></marker><marker
   refX="0"
   refY="0"
   orient="auto"
   id="TriangleOutM1-61"
   style="overflow:visible"><path
     d="M 5.77,0 -2.88,5 V -5 Z"
     transform="scale(0.4)"
     id="path11856-1"
     style="fill:#2b2828;fill-rule:evenodd;stroke:#2b2828;stroke-width:1pt;marker-start:none" /></marker><marker
   refX="0"
   refY="0"
   orient="auto"
   id="TriangleOutM1-98"
   style="overflow:visible"><path
     d="M 5.77,0 -2.88,5 V -5 Z"
     transform="scale(0.4)"
     id="path11856-48"
     style="fill:#2b2828;fill-rule:evenodd;stroke:#2b2828;stroke-width:1pt;marker-start:none" /></marker><marker
   refX="0"
   refY="0"
   orient="auto"
   id="TriangleOutM1-0"
   style="overflow:visible"><path
     d="M 5.77,0 -2.88,5 V -5 Z"
     transform="scale(0.4)"
     id="path11856-30"
     style="fill:#2b2828;fill-rule:evenodd;stroke:#2b2828;stroke-width:1pt;marker-start:none" /></marker>
   





























  
   





























  
   





























  
   





























  
   





























  
   





























  </defs>
 <g
   id="g2154"><path
     style="fill:#f5f6f7;stroke:#202326;stroke-width:0"
     id="path9"
     d="M 37.522117,12.621184 H 716.37483 c 12.10574,0 21.41785,8.72759 21.41785,21.334111 V 220.1439 c 0,11.63677 -9.31211,22.30384 -21.41785,22.30384 H 37.522117 c -13.036952,0 -23.280271,-10.66707 -23.280271,-22.30384 V 33.955295 c 0,-12.606521 10.243319,-21.334111 23.280271,-21.334111 z" /><path
     style="fill:#9fcfe0;fill-opacity:1;stroke:#202326;stroke-width:0"
     id="path11"
     d="m 39.284473,83.631602 h 20 c 1,0 3,1.000003 3,3.000006 V 103.6316 c 0,1.99998 -2,2.99998 -3,2.99998 h -20 c -2,0 -3,-1 -3,-2.99998 V 86.631608 c 0,-2.000003 1,-3.000006 3,-3.000006 z" /><path
     style="fill:#9fcfe0;fill-opacity:1;stroke:#202326;stroke-width:0"
     id="path13"
     d="m 69.284473,83.631602 h 20 c 2,0 3,1.000003 3,3.000006 V 103.6316 c 0,1.99998 -1,2.99998 -3,2.99998 h -20 c -2,0 -3,-1 -3,-2.99998 V 86.631608 c 0,-2.000003 1,-3.000006 3,-3.000006 z" /><path
     style="fill:#9fcfe0;fill-opacity:1;stroke:#202326;stroke-width:0"
     id="path15"
     d="m 98.284477,83.631602 h 19.999993 c 2,0 3,1.000003 3,3.000006 V 103.6316 c 0,1.99998 -1,2.99998 -3,2.99998 H 98.284477 c -1.000003,0 -2.000003,-1 -2.000003,-2.99998 V 86.631608 c 0,-2.000003 1,-3.000006 2.000003,-3.000006 z" /><path
     style="fill:#9fcfe0;fill-opacity:1;stroke:#202326;stroke-width:0"
     id="path17"
     d="m 128.28447,83.631602 h 20 c 2,0 3,1.000003 3,3.000006 V 103.6316 c 0,1.99998 -1,2.99998 -3,2.99998 h -20 c -2,0 -3,-1 -3,-2.99998 V 86.631608 c 0,-2.000003 1,-3.000006 3,-3.000006 z" /><path
     style="fill:#9fcfe0;fill-opacity:1;stroke:#202326;stroke-width:0"
     id="path19"
     d="m 158.28447,83.631602 h 20 c 2,0 3,1.000003 3,3.000006 V 103.6316 c 0,1.99998 -1,2.99998 -3,2.99998 h -20 c -1,0 -3,-1 -3,-2.99998 V 86.631608 c 0,-2.000003 2,-3.000006 3,-3.000006 z" /><path
     style="fill:#9fcfe0;fill-opacity:1;stroke:#202326;stroke-width:0"
     id="path21"
     d="m 188.28447,83.631602 h 19 c 2,0 3,1.000003 3,3.000006 V 103.6316 c 0,1.99998 -1,2.99998 -3,2.99998 h -19 c -1,0 -3,-1 -3,-2.99998 V 86.631608 c 0,-2.000003 2,-3.000006 3,-3.000006 z" /><path
     style="fill:#9fcfe0;fill-opacity:1;stroke:#202326;stroke-width:0"
     id="path23"
     d="m 217.28447,83.631602 h 20 c 2,0 3,1.000003 3,3.000006 V 103.6316 c 0,1.99998 -1,2.99998 -3,2.99998 h -20 c -1,0 -3,-1 -3,-2.99998 V 86.631608 c 0,-2.000003 2,-3.000006 3,-3.000006 z" /><path
     style="fill:#9fcfe0;fill-opacity:1;stroke:#202326;stroke-width:0"
     id="path25"
     d="m 247.28447,83.631602 h 20 c 2,0 3,1.000003 3,3.000006 V 103.6316 c 0,1.99998 -1,2.99998 -3,2.99998 h -20 c -1,0 -3,-1 -3,-2.99998 V 86.631608 c 0,-2.000003 2,-3.000006 3,-3.000006 z" /><path
     style="fill:#9fcfe0;fill-opacity:1;stroke:#202326;stroke-width:0"
     id="path27"
     d="m 277.28447,83.631602 h 19 c 2,0 3,1.000003 3,3.000006 V 103.6316 c 0,1.99998 -1,2.99998 -3,2.99998 h -19 c -1,0 -3,-1 -3,-2.99998 V 86.631608 c 0,-2.000003 2,-3.000006 3,-3.000006 z" /><path
     style="fill:#9fcfe0;fill-opacity:1;stroke:#202326;stroke-width:0"
     id="path29"
     d="m 306.28447,83.631602 h 20 c 2,0 3,1.000003 3,3.000006 V 103.6316 c 0,1.99998 -1,2.99998 -3,2.99998 h -20 c -1,0 -3,-1 -3,-2.99998 V 86.631608 c 0,-2.000003 2,-3.000006 3,-3.000006 z" /><path
     style="fill:#9fcfe0;fill-opacity:1;stroke:#202326;stroke-width:0"
     id="path31"
     d="m 336.28447,83.631602 h 20 c 2,0 3,1.000003 3,3.000006 V 103.6316 c 0,1.99998 -1,2.99998 -3,2.99998 h -20 c -1,0 -3,-1 -3,-2.99998 V 86.631608 c 0,-2.000003 2,-3.000006 3,-3.000006 z" /><path
     style="fill:#9fcfe0;fill-opacity:1;stroke:#202326;stroke-width:0"
     id="path33"
     d="m 366.28447,83.631602 h 20 c 1,0 2,1.000003 2,3.000006 V 103.6316 c 0,1.99998 -1,2.99998 -2,2.99998 h -20 c -1,0 -3,-1 -3,-2.99998 V 86.631608 c 0,-2.000003 2,-3.000006 3,-3.000006 z" /><path
     style="fill:#9fcfe0;fill-opacity:1;stroke:#202326;stroke-width:0"
     id="path35"
     d="m 395.28447,83.631602 h 20 c 2,0 3,1.000003 3,3.000006 V 103.6316 c 0,1.99998 -1,2.99998 -3,2.99998 h -20 c -1,0 -2,-1 -2,-2.99998 V 86.631608 c 0,-2.000003 1,-3.000006 2,-3.000006 z" /><path
     style="fill:#9fcfe0;fill-opacity:1;stroke:#202326;stroke-width:0"
     id="path41"
     d="m 87.284473,110.63407 h 18.999997 c 2,0 3,1 3,3 v 18 c 0,1 -1,3 -3,3 H 87.284473 c -1,0 -3,-2 -3,-3 v -18 c 0,-2 2,-3 3,-3 z" /><path
     style="fill:#9fcfe0;fill-opacity:1;stroke:#202326;stroke-width:0"
     id="path43"
     d="m 116.28447,110.63407 h 20 c 2,0 3,1 3,3 v 18 c 0,1 -1,3 -3,3 h -20 c -1,0 -3,-2 -3,-3 v -18 c 0,-2 2,-3 3,-3 z" /><path
     style="fill:#9fcfe0;fill-opacity:1;stroke:#202326;stroke-width:0"
     id="path45"
     d="m 146.28447,110.63407 h 20 c 2,0 3,1 3,3 v 18 c 0,1 -1,3 -3,3 h -20 c -1,0 -3,-2 -3,-3 v -18 c 0,-2 2,-3 3,-3 z" /><path
     style="fill:#9fcfe0;fill-opacity:1;stroke:#202326;stroke-width:0"
     id="path47"
     d="m 176.28447,110.63407 h 19 c 2,0 3,1 3,3 v 18 c 0,1 -1,3 -3,3 h -19 c -1,0 -3,-2 -3,-3 v -18 c 0,-2 2,-3 3,-3 z" /><path
     style="fill:#9fcfe0;fill-opacity:1;stroke:#202326;stroke-width:0"
     id="path49"
     d="m 205.28447,110.63407 h 20 c 2,0 3,1 3,3 v 18 c 0,1 -1,3 -3,3 h -20 c -1,0 -2,-2 -2,-3 v -18 c 0,-2 1,-3 2,-3 z" /><path
     style="fill:#9fcfe0;fill-opacity:1;stroke:#202326;stroke-width:0"
     id="path51"
     d="m 235.28447,110.63407 h 20 c 2,0 3,1 3,3 v 18 c 0,1 -1,3 -3,3 h -20 c -1,0 -2,-2 -2,-3 v -18 c 0,-2 1,-3 2,-3 z" /><path
     style="fill:#9fcfe0;fill-opacity:1;stroke:#202326;stroke-width:0"
     id="path53"
     d="m 265.28447,110.63407 h 20 c 2,0 3,1 3,3 v 18 c 0,1 -1,3 -3,3 h -20 c -1,0 -2,-2 -2,-3 v -18 c 0,-2 1,-3 2,-3 z" /><path
     style="fill:#9fcfe0;fill-opacity:1;stroke:#202326;stroke-width:0"
     id="path55"
     d="m 294.28447,110.63407 h 20 c 2,0 3,1 3,3 v 18 c 0,1 -1,3 -3,3 h -20 c -1,0 -2,-2 -2,-3 v -18 c 0,-2 1,-3 2,-3 z" /><path
     style="fill:#9fcfe0;fill-opacity:1;stroke:#202326;stroke-width:0"
     id="path57"
     d="m 324.28447,110.63407 h 20 c 2,0 3,1 3,3 v 18 c 0,1 -1,3 -3,3 h -20 c -1,0 -2,-2 -2,-3 v -18 c 0,-2 1,-3 2,-3 z" /><path
     style="fill:#9fcfe0;fill-opacity:1;stroke:#202326;stroke-width:0"
     id="path59"
     d="m 354.28447,110.63407 h 20 c 2,0 3,1 3,3 v 18 c 0,1 -1,3 -3,3 h -20 c -1,0 -2,-2 -2,-3 v -18 c 0,-2 1,-3 2,-3 z" /><path
     style="fill:#9fcfe0;fill-opacity:1;stroke:#202326;stroke-width:0"
     id="path61"
     d="m 384.28447,110.63407 h 19 c 2,0 3,1 3,3 v 18 c 0,1 -1,3 -3,3 h -19 c -1,0 -2,-2 -2,-3 v -18 c 0,-2 1,-3 2,-3 z" /><path
     style="fill:#9fcfe0;fill-opacity:1;stroke:#202326;stroke-width:0"
     id="path63"
     d="m 413.28447,110.63407 h 20 c 2,0 3,1 3,3 v 18 c 0,1 -1,3 -3,3 h -20 c -1,0 -2,-2 -2,-3 v -18 c 0,-2 1,-3 2,-3 z" /><path
     style="fill:#9fcfe0;fill-opacity:1;stroke:#202326;stroke-width:0"
     id="path65"
     d="m 95.284471,138.63657 h 18.999999 c 1,0 3,1 3,2 v 19 c 0,1 -2,2 -3,2 H 95.284471 c -1.999998,0 -2.999998,-1 -2.999998,-2 v -19 c 0,-1 1,-2 2.999998,-2 z" /><path
     style="fill:#9fcfe0;fill-opacity:1;stroke:#202326;stroke-width:0"
     id="path67"
     d="m 124.28447,138.63657 h 20 c 1,0 3,1 3,2 v 19 c 0,1 -2,2 -3,2 h -20 c -2,0 -3,-1 -3,-2 v -19 c 0,-1 1,-2 3,-2 z" /><path
     style="fill:#9fcfe0;fill-opacity:1;stroke:#202326;stroke-width:0"
     id="path69"
     d="m 154.28447,138.63657 h 20 c 2,0 3,1 3,2 v 19 c 0,1 -1,2 -3,2 h -20 c -2,0 -3,-1 -3,-2 v -19 c 0,-1 1,-2 3,-2 z" /><path
     style="fill:#9fcfe0;fill-opacity:1;stroke:#202326;stroke-width:0"
     id="path71"
     d="m 184.28447,138.63657 h 19 c 2,0 3,1 3,2 v 19 c 0,1 -1,2 -3,2 h -19 c -2,0 -3,-1 -3,-2 v -19 c 0,-1 1,-2 3,-2 z" /><path
     style="fill:#9fcfe0;fill-opacity:1;stroke:#202326;stroke-width:0"
     id="path73"
     d="m 213.28447,138.63657 h 20 c 2,0 3,1 3,2 v 19 c 0,1 -1,2 -3,2 h -20 c -2,0 -3,-1 -3,-2 v -19 c 0,-1 1,-2 3,-2 z" /><path
     style="fill:#9fcfe0;fill-opacity:1;stroke:#202326;stroke-width:0"
     id="path75"
     d="m 243.28447,138.63657 h 20 c 2,0 3,1 3,2 v 19 c 0,1 -1,2 -3,2 h -20 c -1,0 -3,-1 -3,-2 v -19 c 0,-1 2,-2 3,-2 z" /><path
     style="fill:#9fcfe0;fill-opacity:1;stroke:#202326;stroke-width:0"
     id="path77"
     d="m 273.28447,138.63657 h 19 c 2,0 3,1 3,2 v 19 c 0,1 -1,2 -3,2 h -19 c -1,0 -3,-1 -3,-2 v -19 c 0,-1 2,-2 3,-2 z" /><path
     style="fill:#9fcfe0;fill-opacity:1;stroke:#202326;stroke-width:0"
     id="path79"
     d="m 302.28447,138.63657 h 20 c 2,0 3,1 3,2 v 19 c 0,1 -1,2 -3,2 h -20 c -1,0 -3,-1 -3,-2 v -19 c 0,-1 2,-2 3,-2 z" /><path
     style="fill:#9fcfe0;fill-opacity:1;stroke:#202326;stroke-width:0"
     id="path81"
     d="m 332.28447,138.63657 h 20 c 2,0 3,1 3,2 v 19 c 0,1 -1,2 -3,2 h -20 c -1,0 -3,-1 -3,-2 v -19 c 0,-1 2,-2 3,-2 z" /><path
     style="fill:#9fcfe0;fill-opacity:1;stroke:#202326;stroke-width:0"
     id="path83"
     d="m 362.28447,138.63657 h 20 c 2,0 3,1 3,2 v 19 c 0,1 -1,2 -3,2 h -20 c -1,0 -3,-1 -3,-2 v -19 c 0,-1 2,-2 3,-2 z" /><path
     style="fill:#9fcfe0;fill-opacity:1;stroke:#202326;stroke-width:0"
     id="path85"
     d="m 391.28447,138.63657 h 20 c 2,0 3,1 3,2 v 19 c 0,1 -1,2 -3,2 h -20 c -1,0 -3,-1 -3,-2 v -19 c 0,-1 2,-2 3,-2 z" /><path
     style="fill:#9fcfe0;fill-opacity:1;stroke:#202326;stroke-width:0"
     id="path87"
     d="m 105.28447,165.63907 h 21 c 1,0 2,2 2,3 v 17 c 0,2 -1,3 -2,3 h -21 c -1,0 -2,-1 -2,-3 v -17 c 0,-1 1,-3 2,-3 z" /><path
     style="fill:#9fcfe0;fill-opacity:1;stroke:#202326;stroke-width:0"
     id="path89"
     d="m 135.28447,165.63907 h 21 c 1,0 2,2 2,3 v 17 c 0,2 -1,3 -2,3 h -21 c -1,0 -2,-1 -2,-3 v -17 c 0,-1 1,-3 2,-3 z" /><path
     style="fill:#9fcfe0;fill-opacity:1;stroke:#202326;stroke-width:0"
     id="path91"
     d="m 165.28447,165.63907 h 21 c 1,0 2,2 2,3 v 17 c 0,2 -1,3 -2,3 h -21 c -1,0 -2,-1 -2,-3 v -17 c 0,-1 1,-3 2,-3 z" /><path
     style="fill:#9fcfe0;fill-opacity:1;stroke:#202326;stroke-width:0"
     id="path93"
     d="m 225.28447,165.63907 h 20 c 1,0 2,2 2,3 v 17 c 0,2 -1,3 -2,3 h -20 c -2,0 -3,-1 -3,-3 v -17 c 0,-1 1,-3 3,-3 z" /><path
     style="fill:#9fcfe0;fill-opacity:1;stroke:#202326;stroke-width:0"
     id="path95"
     d="m 255.28447,165.63907 h 20 c 1,0 2,2 2,3 v 17 c 0,2 -1,3 -2,3 h -20 c -2,0 -3,-1 -3,-3 v -17 c 0,-1 1,-3 3,-3 z" /><path
     style="fill:#9fcfe0;fill-opacity:1;stroke:#202326;stroke-width:0"
     id="path97"
     d="m 285.28447,165.63907 h 19 c 1,0 2,2 2,3 v 17 c 0,2 -1,3 -2,3 h -19 c -2,0 -3,-1 -3,-3 v -17 c 0,-1 1,-3 3,-3 z" /><path
     style="fill:#9fcfe0;fill-opacity:1;stroke:#202326;stroke-width:0"
     id="path99"
     d="m 314.28447,165.63907 h 20 c 1,0 2,2 2,3 v 17 c 0,2 -1,3 -2,3 h -20 c -2,0 -3,-1 -3,-3 v -17 c 0,-1 1,-3 3,-3 z" /><path
     style="fill:#9fcfe0;fill-opacity:1;stroke:#202326;stroke-width:0"
     id="path101"
     d="m 344.28447,165.63907 h 20 c 1,0 2,2 2,3 v 17 c 0,2 -1,3 -2,3 h -20 c -2,0 -3,-1 -3,-3 v -17 c 0,-1 1,-3 3,-3 z" /><path
     style="fill:#9fcfe0;fill-opacity:1;stroke:#202326;stroke-width:0"
     id="path103"
     d="m 374.28447,165.63907 h 19 c 1,0 2,2 2,3 v 17 c 0,2 -1,3 -2,3 h -19 c -2,0 -3,-1 -3,-3 v -17 c 0,-1 1,-3 3,-3 z" /><path
     style="fill:#9fcfe0;fill-opacity:1;stroke:#202326;stroke-width:0"
     id="path185"
     d="M 157.22406,192.64157 H 147.0639 c -1.8473,0 -2.77095,1 -2.77095,3 v 18 c 0,2 0.92365,3 2.77095,3 h 10.16016 155.17334 16.62571 c 0,0 0.92366,-1 0.92366,-3 v -18 c 0,-2 -0.92366,-3 -0.92366,-3 H 312.3974 Z" /><path
     style="fill:#9fcfe0;fill-opacity:1;stroke:#202326;stroke-width:0"
     id="path195"
     d="m 194.28447,165.63907 h 21 c 1,0 2,2 2,3 v 17 c 0,2 -1,3 -2,3 h -21 c 0,0 -1,-1 -1,-3 v -17 c 0,-1 1,-3 1,-3 z" /><path
     style="fill:#9fcfe0;fill-opacity:1;fill-rule:evenodd;stroke:#202326;stroke-width:0"
     id="path87-5"
     d="m 76.535265,165.6358 h 20.999999 c 1.000003,0 2.000003,2 2.000003,3 v 17 c 0,2 -1,3 -2.000003,3 H 76.535265 c -1,0 -2,-1 -2,-3 v -17 c 0,-1 1,-3 2,-3 z" /><path
     style="fill:#9fcfe0;fill-opacity:1;stroke:#202326;stroke-width:0"
     id="path37"
     d="m 419.663,138.65623 h 20 c 2,0 3,1 3,3 v 17 c 0,2 -1,3 -3,3 h -20 c -1,0 -2,-1 -2,-3 v -17 c 0,-2 1,-3 2,-3 z" /><path
     style="fill:#f2c480;fill-opacity:1;stroke:#202326;stroke-width:0"
     id="path105"
     d="m 39.284473,42.631596 h 20 c 1,0 3,1 3,3 v 18 c 0,1 -2,3 -3,3 h -20 c -2,0 -3,-2 -3,-3 v -18 c 0,-2 1,-3 3,-3 z" /><path
     style="fill:#ffc1ea;fill-opacity:1;stroke:#202326;stroke-width:0"
     id="path107"
     d="m 98.284477,42.631596 h 19.999993 c 2,0 3,1 3,3 v 18 c 0,1 -1,3 -3,3 H 98.284477 c -1.000003,0 -2.000003,-2 -2.000003,-3 v -18 c 0,-2 1,-3 2.000003,-3 z" /><path
     style="fill:#ffc1ea;fill-opacity:1;stroke:#202326;stroke-width:0"
     id="path109"
     d="m 128.28447,42.631596 h 20 c 2,0 3,1 3,3 v 18 c 0,1 -1,3 -3,3 h -20 c -2,0 -3,-2 -3,-3 v -18 c 0,-2 1,-3 3,-3 z" /><path
     style="fill:#ffc1ea;fill-opacity:1;stroke:#202326;stroke-width:0"
     id="path111"
     d="m 158.28447,42.631596 h 20 c 2,0 3,1 3,3 v 18 c 0,1 -1,3 -3,3 h -20 c -1,0 -3,-2 -3,-3 v -18 c 0,-2 2,-3 3,-3 z" /><path
     style="fill:#ffc1ea;fill-opacity:1;stroke:#202326;stroke-width:0"
     id="path113"
     d="m 188.28447,42.631596 h 19 c 2,0 3,1 3,3 v 18 c 0,1 -1,3 -3,3 h -19 c -1,0 -3,-2 -3,-3 v -18 c 0,-2 2,-3 3,-3 z" /><path
     style="fill:#ffc1ea;fill-opacity:1;stroke:#202326;stroke-width:0"
     id="path115"
     d="m 232.28447,41.631596 h 20 c 1,0 2,2 2,3 v 18 c 0,2 -1,3 -2,3 h -20 c -2,0 -3,-1 -3,-3 v -18 c 0,-1 1,-3 3,-3 z" /><path
     style="fill:#ffc1ea;fill-opacity:1;stroke:#202326;stroke-width:0"
     id="path117"
     d="m 262.28447,41.631596 h 20 c 1,0 2,2 2,3 v 18 c 0,2 -1,3 -2,3 h -20 c -2,0 -3,-1 -3,-3 v -18 c 0,-1 1,-3 3,-3 z" /><path
     style="fill:#ffc1ea;fill-opacity:1;stroke:#202326;stroke-width:0"
     id="path119"
     d="m 291.28447,41.631596 h 20 c 1,0 2,2 2,3 v 18 c 0,2 -1,3 -2,3 h -20 c -1,0 -2,-1 -2,-3 v -18 c 0,-1 1,-3 2,-3 z" /><path
     style="fill:#ffc1ea;fill-opacity:1;stroke:#202326;stroke-width:0"
     id="path121"
     d="m 321.28447,41.631596 h 20 c 1,0 2,2 2,3 v 18 c 0,2 -1,3 -2,3 h -20 c -2,0 -3,-1 -3,-3 v -18 c 0,-1 1,-3 3,-3 z" /><path
     style="fill:#ffc1ea;fill-opacity:1;stroke:#202326;stroke-width:0"
     id="path123"
     d="m 365.28447,41.631596 h 20 c 1,0 2,2 2,3 v 18 c 0,2 -1,3 -2,3 h -20 c -2,0 -3,-1 -3,-3 v -18 c 0,-1 1,-3 3,-3 z" /><path
     style="fill:#ffc1ea;fill-opacity:1;stroke:#202326;stroke-width:0"
     id="path125"
     d="m 394.28447,41.631596 h 20 c 1,0 2,2 2,3 v 18 c 0,2 -1,3 -2,3 h -20 c -2,0 -3,-1 -3,-3 v -18 c 0,-1 1,-3 3,-3 z" /><path
     style="fill:#ffc1ea;fill-opacity:1;stroke:#202326;stroke-width:0"
     id="path127"
     d="m 424.28447,41.631596 h 20 c 1,0 2,2 2,3 v 18 c 0,2 -1,3 -2,3 h -20 c -2,0 -3,-1 -3,-3 v -18 c 0,-1 1,-3 3,-3 z" /><path
     style="fill:#ffc1ea;fill-opacity:1;stroke:#202326;stroke-width:0"
     id="path129"
     d="m 454.28447,41.631596 h 20 c 1,0 2,2 2,3 v 18 c 0,2 -1,3 -2,3 h -20 c -2,0 -3,-1 -3,-3 v -18 c 0,-1 1,-3 3,-3 z" /><path
     style="fill:#f1ef9e;fill-opacity:1;stroke:#202326;stroke-width:0"
     id="path131"
     d="m 500.3271,83.631602 h 20 c 1,0 2,1.000003 2,2.000003 V 103.6316 c 0,0.99998 -1,1.99998 -2,1.99998 h -20 c -2,0 -3,-1 -3,-1.99998 V 85.631605 c 0,-1 1,-2.000003 3,-2.000003 z" /><path
     style="fill:#a8d1b1;fill-opacity:1;stroke:#202326;stroke-width:0"
     id="path133"
     d="m 530.3271,83.631602 h 20 c 1,0 2,1.000003 2,2.000003 V 103.6316 c 0,0.99998 -1,1.99998 -2,1.99998 h -20 c -2,0 -3,-1 -3,-1.99998 V 85.631605 c 0,-1 1,-2.000003 3,-2.000003 z" /><path
     style="fill:#a8d1b1;fill-opacity:1;stroke:#202326;stroke-width:0"
     id="path135"
     d="m 560.3271,83.631602 h 19 c 1,0 2,1.000003 2,2.000003 V 103.6316 c 0,0.99998 -1,1.99998 -2,1.99998 h -19 c -2,0 -3,-1 -3,-1.99998 V 85.631605 c 0,-1 1,-2.000003 3,-2.000003 z" /><path
     style="fill:#f2c480;fill-opacity:1;stroke:#202326;stroke-width:0"
     id="path137"
     d="m 498.3271,41.631596 h 20 c 2,0 3,2 3,3 v 18 c 0,2 -1,3 -3,3 h -20 c -1,0 -3,-1 -3,-3 v -18 c 0,-1 2,-3 3,-3 z" /><path
     style="fill:#cf98cf;fill-opacity:1;stroke:#202326;stroke-width:0"
     id="path139"
     d="m 528.3271,41.631596 h 20 c 2,0 3,2 3,3 v 18 c 0,2 -1,3 -3,3 h -20 c -1,0 -3,-1 -3,-3 v -18 c 0,-1 2,-3 3,-3 z" /><path
     style="fill:#f2c480;fill-opacity:1;stroke:#202326;stroke-width:0"
     id="path141"
     d="m 558.3271,41.631596 h 19 c 2,0 3,2 3,3 v 18 c 0,2 -1,3 -3,3 h -19 c -1,0 -3,-1 -3,-3 v -18 c 0,-1 2,-3 3,-3 z" /><path
     style="fill:#f1ef9e;fill-opacity:1;stroke:#202326;stroke-width:0"
     id="path143"
     d="m 500.3271,110.39061 h 20 c 1,0 2,2 2,3 v 18 c 0,2 -1,3 -2,3 h -20 c -2,0 -3,-1 -3,-3 v -18 c 0,-1 1,-3 3,-3 z" /><path
     style="fill:#a8d1b1;fill-opacity:1;stroke:#202326;stroke-width:0"
     id="path145"
     d="m 530.3271,110.39061 h 20 c 1,0 2,2 2,3 v 18 c 0,2 -1,3 -2,3 h -20 c -2,0 -3,-1 -3,-3 v -18 c 0,-1 1,-3 3,-3 z" /><path
     style="fill:#a8d1b1;fill-opacity:1;stroke:#202326;stroke-width:0"
     id="path147"
     d="m 560.3271,110.39061 h 19 c 1,0 2,2 2,3 v 18 c 0,2 -1,3 -2,3 h -19 c -2,0 -3,-1 -3,-3 v -18 c 0,-1 1,-3 3,-3 z" /><path
     style="fill:#a8d1b1;stroke:#202326;stroke-width:0"
     id="path149"
     d="m 500.3271,192.64157 h 20 c 1,0 2,1 2,2 v 19 c 0,1 -1,2 -2,2 h -20 c -2,0 -3,-1 -3,-2 v -19 c 0,-1 1,-2 3,-2 z" /><path
     style="fill:#a8d1b1;stroke:#202326;stroke-width:0"
     id="path151"
     d="m 530.3271,192.64157 h 20 c 1,0 2,1 2,2 v 19 c 0,1 -1,2 -2,2 h -20 c -2,0 -3,-1 -3,-2 v -19 c 0,-1 1,-2 3,-2 z" /><path
     style="fill:#a8d1b1;stroke:#202326;stroke-width:0"
     id="path153"
     d="m 560.3271,192.64157 h 19 c 1,0 2,1 2,2 v 19 c 0,1 -1,2 -2,2 h -19 c -2,0 -3,-1 -3,-2 v -19 c 0,-1 1,-2 3,-2 z" /><path
     style="fill:#a8d1b1;stroke:#202326;stroke-width:0"
     id="path155"
     d="m 530.3271,165.63907 h 20 c 1,0 2,1 2,3 v 17 c 0,1 -1,3 -2,3 h -20 c -2,0 -3,-2 -3,-3 v -17 c 0,-2 1,-3 3,-3 z" /><path
     style="fill:#cf98cf;fill-opacity:1;stroke:#202326;stroke-width:0"
     id="path157"
     d="m 602.75005,83.631602 h 20 c 2,0 3,1.000003 3,2.000003 V 103.6316 c 0,0.99998 -1,1.99998 -3,1.99998 h -20 c -1,0 -3,-1 -3,-1.99998 V 85.631605 c 0,-1 2,-2.000003 3,-2.000003 z" /><path
     style="fill:#b0bde0;fill-opacity:1;stroke:#202326;stroke-width:0"
     id="path159"
     d="m 632.75005,83.631602 h 19 c 2,0 3,1.000003 3,2.000003 V 103.6316 c 0,0.99998 -1,1.99998 -3,1.99998 h -19 c -1,0 -3,-1 -3,-1.99998 V 85.631605 c 0,-1 2,-2.000003 3,-2.000003 z" /><path
     style="fill:#b0bde0;fill-opacity:1;stroke:#202326;stroke-width:0"
     id="path161"
     d="m 661.75005,83.631602 h 20 c 2,0 3,1.000003 3,2.000003 V 103.6316 c 0,0.99998 -1,1.99998 -3,1.99998 h -20 c -1,0 -3,-1 -3,-1.99998 V 85.631605 c 0,-1 2,-2.000003 3,-2.000003 z" /><path
     style="fill:#b0bde0;fill-opacity:1;stroke:#202326;stroke-width:0"
     id="path163"
     d="m 602.75005,110.39061 h 20 c 2,0 3,2 3,3 v 18 c 0,2 -1,3 -3,3 h -20 c -1,0 -3,-1 -3,-3 v -18 c 0,-1 2,-3 3,-3 z" /><path
     style="fill:#b0bde0;fill-opacity:1;stroke:#202326;stroke-width:0"
     id="path165"
     d="m 632.75005,110.39061 h 19 c 2,0 3,2 3,3 v 18 c 0,2 -1,3 -3,3 h -19 c -1,0 -3,-1 -3,-3 v -18 c 0,-1 2,-3 3,-3 z" /><path
     style="fill:#b0bde0;fill-opacity:1;stroke:#202326;stroke-width:0"
     id="path167"
     d="m 661.75005,110.39061 h 20 c 2,0 3,2 3,3 v 18 c 0,2 -1,3 -3,3 h -20 c -1,0 -3,-1 -3,-3 v -18 c 0,-1 2,-3 3,-3 z" /><path
     style="fill:#b0bde0;fill-opacity:1;stroke:#202326;stroke-width:0"
     id="path169"
     d="m 602.75005,138.39311 h 20 c 2,0 3,1 3,3 v 18 c 0,2 -1,3 -3,3 h -20 c -1,0 -3,-1 -3,-3 v -18 c 0,-2 2,-3 3,-3 z" /><path
     style="fill:#b0bde0;fill-opacity:1;stroke:#202326;stroke-width:0"
     id="path171"
     d="m 632.75005,138.39311 h 19 c 2,0 3,1 3,3 v 18 c 0,2 -1,3 -3,3 h -19 c -1,0 -3,-1 -3,-3 v -18 c 0,-2 2,-3 3,-3 z" /><path
     style="fill:#b0bde0;fill-opacity:1;stroke:#202326;stroke-width:0"
     id="path173"
     d="m 661.75005,138.39311 h 20 c 2,0 3,1 3,3 v 18 c 0,2 -1,3 -3,3 h -20 c -1,0 -3,-1 -3,-3 v -18 c 0,-2 2,-3 3,-3 z" /><path
     style="fill:#b0bde0;fill-opacity:1;stroke:#202326;stroke-width:0"
     id="path175"
     d="m 602.75005,165.63907 h 20 c 2,0 3,1 3,3 v 17 c 0,1 -1,3 -3,3 h -20 c -1,0 -3,-2 -3,-3 v -17 c 0,-2 2,-3 3,-3 z" /><path
     style="fill:#b0bde0;fill-opacity:1;stroke:#202326;stroke-width:0"
     id="path177"
     d="m 632.75005,165.63907 h 19 c 2,0 3,1 3,3 v 17 c 0,1 -1,3 -3,3 h -19 c -1,0 -3,-2 -3,-3 v -17 c 0,-2 2,-3 3,-3 z" /><path
     style="fill:#b0bde0;fill-opacity:1;stroke:#202326;stroke-width:0"
     id="path179"
     d="m 661.75005,165.63907 h 20 c 2,0 3,1 3,3 v 17 c 0,1 -1,3 -3,3 h -20 c -1,0 -3,-2 -3,-3 v -17 c 0,-2 2,-3 3,-3 z" /><path
     style="fill:#b0bde0;fill-opacity:1;stroke:#202326;stroke-width:0"
     id="path181"
     d="m 661.75005,192.64157 h 20 c 2,0 3,1 3,2 v 19 c 0,1 -1,2 -3,2 h -20 c -1,0 -3,-1 -3,-2 v -19 c 0,-1 2,-2 3,-2 z" /><path
     style="fill:#b0bde0;fill-opacity:1;stroke:#202326;stroke-width:0"
     id="path183"
     d="m 691.75005,83.631602 h 20 c 2,0 3,1.000003 3,2.000003 V 103.6316 c 0,0.99998 -1,1.99998 -3,1.99998 h -20 c -1,0 -3,-1 -3,-1.99998 V 85.631605 c 0,-1 2,-2.000003 3,-2.000003 z" /><path
     style="fill:#f2c480;fill-opacity:1;stroke:#202326;stroke-width:0"
     id="path187"
     d="m 374.52677,192.64157 h 23.30006 c 1.22632,0 2.45264,1 2.45264,3 v 18 c 0,2 -1.22632,3 -2.45264,3 h -23.30006 c -2.45264,0 -3.67895,-1 -3.67895,-3 v -18 c 0,-2 1.22631,-3 3.67895,-3 z" /><path
     style="fill:#f2c480;fill-opacity:1;stroke:#202326;stroke-width:0"
     id="path189"
     d="m 408.20906,192.64157 h 24.61367 c 1.23071,0 2.46138,1 2.46138,3 v 18 c 0,2 -1.23067,3 -2.46138,3 h -24.61367 c -2.46136,0 -3.69205,-1 -3.69205,-3 v -18 c 0,-2 1.23069,-3 3.69205,-3 z" /><path
     style="fill:#b0bde0;fill-opacity:1;stroke:#202326;stroke-width:0"
     id="path191"
     d="m 714.75005,113.87062 c 0,-1.03239 -1,-3.09718 -3,-3.09718 h -20 c -1,0 -3,2.06479 -3,3.09718 v 45.42531 c 0,2.06479 2,3.09718 3,3.09718 h 20 c 2,0 3,-1.03239 3,-3.09718 z" /><path
     style="fill:#f1ef9e;fill-opacity:1;stroke:#202326;stroke-width:0"
     id="path193"
     d="m 714.75005,168.74352 c 0,-2.08436 -1,-3.12654 -3,-3.12654 h -20 c -1,0 -3,1.04218 -3,3.12654 v 44.81369 c 0,1.04218 2,2.08436 3,2.08436 h 20 c 2,0 3,-1.04218 3,-2.08436 z" /><path
     style="fill:#a8d1b1;fill-opacity:1;stroke:#202326;stroke-width:0"
     id="path197"
     d="m 39.284473,134.63407 c -2,0 -3,-2 -3,-3 v -18 c 0,-2 1,-3 3,-3 h 38 c 2,0 3,1 3,3 v 18 c 0,1 -1,3 -3,3 z" /><path
     style="fill:#cf98cf;fill-opacity:1;stroke:#202326;stroke-width:0"
     id="path199"
     d="m 39.284473,161.63657 c -1,0 -3,-1 -3,-2 v -19 c 0,-1 2,-2 3,-2 h 45 c 2,0 4,1 4,2 v 19 c 0,1 -2,2 -4,2 z" /><path
     style="fill:none;stroke:#2b2828;stroke-width:0"
     id="path305"
     d="m 540.3271,181.63907 v -10" /><path
     style="fill:none;stroke:#2b2828;stroke-width:0"
     id="path309"
     d="m 540.3271,198.64157 v 11" /><path
     style="fill:none;stroke:#2b2828;stroke-width:0"
     id="path313"
     d="m 564.3271,203.64157 h 10" /><path
     style="fill:none;stroke:#2b2828;stroke-width:0"
     id="path317"
     d="m 515.3271,203.64157 h -11" /><path
     style="fill:#b0bde0;fill-opacity:1;stroke:#202326;stroke-width:0"
     id="path373"
     d="m 602.75005,215.64157 c -1,0 -3,-1 -3,-2 v -19 c 0,-1 2,-2 3,-2 h 49 c 2,0 3,1 3,2 v 19 c 0,1 -1,2 -3,2 z" /><path
     style="fill:none;stroke:#2b2828;stroke-width:0"
     id="path407"
     d="m 495.3271,57.631596 h 26" /><path
     style="fill:none;stroke:#2b2828;stroke-width:0"
     id="path417"
     d="m 555.3271,56.631596 h 25" /><path
     style="fill:#f1ef9e;fill-opacity:1;fill-rule:evenodd;stroke:#202326;stroke-width:0"
     id="path193-5"
     d="m 425.0752,83.761762 c -2.08436,0 -3.12654,1.000003 -3.12654,3.000006 l 0.28632,16.850472 c 0,0.99998 1.04218,2.99998 3.12654,2.99998 l 50.54008,-0.28632 c 1.04218,0 2.08436,-2 2.08436,-2.99998 l -0.28632,-16.850472 c 0,-2.000003 -1.04218,-3.000006 -2.08436,-3.000006 z"
     sodipodi:nodetypes="ccccccccc" /><path
     style="fill:#e89fa5;fill-opacity:1;stroke:#202326;stroke-width:0"
     id="path551"
     d="m 402.28447,188.63907 c -1,0 -2,-1 -2,-3 v -17 c 0,-1 1,-3 2,-3 h 73 c 2,0 3,2 3,3 v 17 c 0,2 -1,3 -3,3 z" /><path
     style="fill:#f1ef9e;fill-opacity:1;stroke:#202326;stroke-width:0"
     id="path553"
     d="m 443.6099,134.54514 h -0.85927 c -1.73372,0 -2.60059,-1 -2.60059,-2 v -19.91107 c 0,-1 0.86687,-2 2.60059,-2 h 32.93325 c 1.73373,0 2.60059,1 2.60059,2 v 46.00424 c 0,2 -0.86686,3 -2.60059,3 h -26.87279 c -1.73374,0 -2.6006,-1 -2.6006,-3 v -21.09317 c 0,-2 0,-3 -2.60059,-3 z"
     sodipodi:nodetypes="cccccccccccccc" /><path
     style="fill:#e89fa5;fill-opacity:1;stroke:#202326;stroke-width:0"
     id="path559"
     d="m 442.28447,192.64157 h 33 c 2,0 3,1 3,3 v 18 c 0,2 -1,3 -3,3 h -33 c -2,0 -3,-1 -3,-3 v -18 c 0,-2 1,-3 3,-3 z" /><path
     style="fill:#e89fa5;fill-opacity:1;stroke:#202326;stroke-width:0"
     id="path563"
     d="m 39.235389,192.64157 h 29.509166 c 0.983639,0 1.967277,1 1.967277,3 v 18 c 0,2 -0.983638,3 -1.967277,3 H 39.235389 c -1.967277,0 -2.950916,-1 -2.950916,-3 v -18 c 0,-2 0.983639,-3 2.950916,-3 z" /><path
     style="fill:#f2c480;fill-opacity:1;stroke:#202326;stroke-width:0"
     id="path565"
     d="m 77.929849,192.64157 h 23.382991 c 2.46136,0 3.69205,1 3.69205,3 v 18 c 0,1 -1.23069,3 -3.69205,3 H 77.929849 c -1.230684,0 -3.692052,-2 -3.692052,-3 v -18 c 0,-2 2.461368,-3 3.692052,-3 z" /><path
     style="fill:#e89fa5;fill-opacity:1;stroke:#202326;stroke-width:0"
     id="path567"
     d="m 111.22317,192.64157 h 25.98732 c 1.03948,0 2.07898,1 2.07898,3 v 18 c 0,1 -1.0395,3 -2.07898,3 h -25.98732 c -1.03948,0 -2.07898,-2 -2.07898,-3 v -18 c 0,-2 1.0395,-3 2.07898,-3 z" /><text
     style="font-weight:normal;font-size:6.96603px;line-height:0%;font-family:Arial;fill:#2b2828;fill-rule:evenodd;stroke-width:0.774003"
     id="text575-5"
     y="207.27777"
     x="44.441151"
     transform="scale(1.0007154,0.99928514)">Fire 1</text><text
     style="font-weight:normal;font-size:6.96603px;line-height:0%;font-family:Arial;fill:#2b2828;fill-rule:evenodd;stroke-width:0.774003"
     id="text575-5-8"
     y="206.11342"
     x="79.877594"
     transform="scale(1.0007154,0.99928514)">Fire 2</text><text
     style="font-weight:normal;font-size:6.96603px;line-height:0%;font-family:Arial;fill:#2b2828;fill-rule:evenodd;stroke-width:0.774003"
     id="text575-5-2"
     y="206.34692"
     x="114.73898"
     transform="scale(1.0007154,0.99928514)">Fire 3</text><path
     style="fill:#e89fa5;fill-opacity:1;stroke:#202326;stroke-width:0"
     id="path865"
     d="m 336.95503,192.64157 h 27.06409 c 1.12768,0 2.25535,1 2.25535,3 v 18 c 0,1 -1.12767,3 -2.25535,3 h -27.06409 c -1.12768,0 -2.25535,-2 -2.25535,-3 v -18 c 0,-2 1.12767,-3 2.25535,-3 z" /><text
     style="font-weight:normal;font-size:6.96603px;line-height:0%;font-family:Arial;fill:#2b2828;fill-rule:evenodd;stroke-width:0.774003"
     id="text575-5-3"
     y="207.11678"
     x="341.56473"
     transform="scale(1.0007154,0.99928514)">Fire 4</text><text
     style="font-weight:normal;font-size:6.96603px;line-height:0%;font-family:Arial;fill:#2b2828;fill-rule:evenodd;stroke-width:0.774003"
     id="text575-5-88"
     y="207.55159"
     x="376.70486"
     transform="scale(1.0007154,0.99928514)">Fire 5</text><text
     style="font-weight:normal;font-size:6.96603px;line-height:0%;font-family:Arial;fill:#2b2828;fill-rule:evenodd;stroke-width:0.774003"
     id="text575-5-88-0"
     y="207.58319"
     x="450.44781"
     transform="scale(1.0007154,0.99928514)">Fire 6</text><path
     style="fill:#e89fa5;fill-opacity:1;fill-rule:evenodd;stroke:#202326;stroke-width:0"
     id="path563-5"
     d="m 39.282913,165.1358 h 29.509165 c 0.983638,0 1.967278,1 1.967278,3 v 18 c 0,2 -0.98364,3 -1.967278,3 H 39.282913 c -1.967278,0 -2.950917,-1 -2.950917,-3 v -18 c 0,-2 0.983639,-3 2.950917,-3 z" /><path
     style="fill:none;stroke:#2b2828;stroke-width:0"
     id="path737"
     d="m 642.75005,127.39061 v -10" /><path
     style="fill:none;stroke:#2b2828;stroke-width:0"
     id="path741"
     d="m 617.75005,150.39311 h -10" /><path
     style="fill:none;stroke:#2b2828;stroke-width:0"
     id="path745"
     d="m 642.75005,171.63907 v 10" /><path
     style="fill:#2b2828"
     id="path829"
     d="m 606.75005,58.631596 h 7 v -3 h -7 z" /><path
     style="fill:none;stroke:#2b2828;stroke-width:0"
     id="path831"
     d="m 606.75005,58.631596 h 7 v -3 h -7 z" /><text
     style="font-weight:normal;font-size:6.19203px;line-height:0%;font-family:Arial;fill:#2b2828;stroke-width:0.774003"
     id="text835"
     y="55.686108"
     x="615.03784"
     transform="scale(1.0007154,0.99928514)">Num</text><text
     style="font-weight:normal;font-size:6.19203px;line-height:0%;font-family:Arial;fill:#2b2828;stroke-width:0.774003"
     id="text839"
     y="62.609558"
     x="615.03784"
     transform="scale(1.0007154,0.99928514)">Lock</text><path
     style="fill:#2b2828"
     id="path841"
     d="m 647.75005,58.631596 h 7 v -3 h -7 z" /><path
     style="fill:none;stroke:#2b2828;stroke-width:0"
     id="path843"
     d="m 647.75005,58.631596 h 7 v -3 h -7 z" /><text
     style="font-weight:normal;font-size:6.19203px;line-height:0%;font-family:Arial;fill:#2b2828;stroke-width:0.774003"
     id="text847"
     y="55.686108"
     x="656.57617"
     transform="scale(1.0007154,0.99928514)">Caps</text><text
     style="font-weight:normal;font-size:6.19203px;line-height:0%;font-family:Arial;fill:#2b2828;stroke-width:0.774003"
     id="text851"
     y="62.609558"
     x="656.57617"
     transform="scale(1.0007154,0.99928514)">Lock</text><path
     style="fill:#2b2828"
     id="path853"
     d="m 688.75005,58.631596 h 7 v -3 h -7 z" /><path
     style="fill:none;stroke:#2b2828;stroke-width:0"
     id="path855"
     d="m 688.75005,58.631596 h 7 v -3 h -7 z" /><text
     style="font-weight:normal;font-size:6.19203px;line-height:0%;font-family:Arial;fill:#2b2828;stroke-width:0.774003"
     id="text859"
     y="55.686108"
     x="697.12616"
     transform="scale(1.0007154,0.99928514)">Scroll</text><text
     style="font-weight:normal;font-size:6.19203px;line-height:0%;font-family:Arial;fill:#2b2828;stroke-width:0.774003"
     id="text863"
     y="62.609558"
     x="697.12616"
     transform="scale(1.0007154,0.99928514)">Lock</text><path
     style="fill:none;stroke:#2b2828;stroke-width:1.00125px;stroke-linecap:butt;stroke-linejoin:miter;stroke-opacity:1;marker-end:url(#TriangleOutM1)"
     id="path11623"
     d="m 539.8271,197.7131 v 10.01253" /><path
     style="fill:none;stroke:#2b2828;stroke-width:1.00125px;stroke-linecap:butt;stroke-linejoin:miter;stroke-opacity:1;marker-end:url(#TriangleOutM1)"
     id="path11623-1"
     d="M 516.25557,204.14157 H 506.24304" /><path
     style="fill:none;stroke:#2b2828;stroke-width:1.00125px;stroke-linecap:butt;stroke-linejoin:miter;stroke-opacity:1;marker-end:url(#TriangleOutM1)"
     id="path11623-1-7"
     d="m 562.89863,204.14157 h 10.01253" /><path
     style="fill:none;stroke:#2b2828;stroke-width:1.00125px;stroke-linecap:butt;stroke-linejoin:miter;stroke-opacity:1;marker-end:url(#TriangleOutM1)"
     id="path11623-2"
     d="M 539.8271,183.56754 V 173.55501" /></g>
</svg>
